<svg width="30" height="27" viewBox="0 0 30 27" fill="none" xmlns="http://www.w3.org/2000/svg">
<path d="M27.2846 10.1111L21.1213 15.5228H5.85683C4.43303 15.5209 3.05772 16.0276 1.99023 16.9472L9.68903 10.1856L9.80715 10.0834L19.4527 1.60541C21.008 0.239823 23.1915 -0.212134 25.1807 0.419786C27.17 1.05171 28.6627 2.6715 29.0967 4.669C29.5306 6.66651 28.8398 8.73825 27.2846 10.1038V10.1111Z" fill="#F15B41"/>
<path d="M5.85671 11.5798C9.09128 11.5798 11.7134 9.02039 11.7134 5.86314C11.7134 2.70589 9.09128 0.146437 5.85671 0.146437C2.62214 0.146437 0 2.70589 0 5.86314C0 9.02039 2.62214 11.5798 5.85671 11.5798Z" fill="#F99D1D"/>
<path d="M5.85698 15.5228C4.43317 15.5209 3.05787 16.0276 1.99038 16.9472L1.94104 16.991C-0.463624 19.102 -0.659766 22.7161 1.50295 25.0633C3.66566 27.4105 7.36825 27.6019 9.77291 25.4909L21.123 15.5243L5.85698 15.5228Z" fill="#272560"/>
<path d="M21.1128 15.5272L9.76153 25.4938C8.68669 26.4373 7.29118 26.9574 5.8457 26.9534L23.3585 26.9533C26.7365 26.9006 29.1215 24.42 29.1215 21.2373C29.1215 18.0547 26.5561 15.5712 23.3585 15.5214L21.1128 15.5272Z" fill="#00B6BD"/>
</svg>
