<svg width="42" height="27" viewBox="0 0 42 27" fill="none" xmlns="http://www.w3.org/2000/svg">
<path d="M2.612 22.1742C2.12442 22.1918 1.65271 22.0041 1.31754 21.6591C0.989436 21.3108 0.814461 20.8513 0.830062 20.3791C0.825488 19.9035 0.946332 19.4347 1.18105 19.0174C1.38726 18.6444 1.63907 18.2969 1.93102 17.9827L9.17726 10.0111H2.86099C2.24901 10.0111 1.81103 9.80679 1.57104 9.40106C1.33737 8.99347 1.22079 8.53219 1.23355 8.06565C1.21667 7.61601 1.3498 7.17314 1.61303 6.80322C1.87394 6.45314 2.29855 6.25452 2.74249 6.27489H13.9021C14.3739 6.25374 14.8341 6.42145 15.1755 6.739C15.492 7.04695 15.6525 7.48479 15.6525 8.03938C15.6659 8.47125 15.5733 8.9 15.3825 9.29014C15.1994 9.63005 14.9699 9.94426 14.7001 10.2242L7.15383 18.4366H14.3041C14.7342 18.4262 15.1437 18.6159 15.4065 18.9474C15.6866 19.318 15.8279 19.7707 15.807 20.2302C15.8274 20.709 15.7095 21.1838 15.4665 21.6007C15.222 21.9816 14.7886 22.1757 14.1796 22.1757L2.612 22.1742Z" fill="#272560"/>
<path d="M20.1423 22.3844C18.1563 22.3844 17.7424 21.392 17.7424 20.5601V8.41738C17.7424 7.78252 17.9389 7.26879 18.3288 6.89079C18.7188 6.51279 19.3398 6.32014 20.1768 6.32014C20.8817 6.32014 21.4397 6.4763 21.8372 6.78571C22.2347 7.09511 22.4552 7.59425 22.4552 8.23641V20.4959C22.4552 21.1628 22.2392 21.6532 21.8132 21.9553C21.3872 22.2574 20.8397 22.3844 20.1423 22.3844ZM20.1423 5.01684C19.3683 5.01684 18.7338 4.79646 18.2538 4.36154C17.7739 3.92663 17.5234 3.32679 17.5234 2.58976C17.5049 1.93636 17.7688 1.30535 18.2508 0.850085C18.7263 0.396193 19.3638 0.164139 20.1423 0.164139C20.7842 0.165501 21.4082 0.370449 21.9197 0.747923C22.4777 1.14781 22.7612 1.76954 22.7612 2.5956C22.7612 3.33262 22.5152 3.92954 22.0307 4.36884C21.5462 4.80814 20.9117 5.02122 20.1423 5.02122V5.01684Z" fill="#272560"/>
<path d="M27.6326 27.0374C25.7757 27.0374 25.3827 26.0289 25.3827 25.1824V8.00583C25.3666 7.46783 25.5794 6.94722 25.9707 6.56679C26.3591 6.18879 26.9816 5.99614 27.8186 5.99614C28.3392 5.99099 28.8535 6.10709 29.3185 6.33473C29.812 6.58138 30.0685 7.06447 30.0685 7.75772C30.1685 7.64583 30.276 7.53102 30.391 7.41329C30.7062 7.10192 31.0587 6.8285 31.441 6.5989C32.37 6.03469 33.4463 5.74284 34.5413 5.75824C35.5907 5.7384 36.6302 5.9573 37.5772 6.39749C38.4439 6.81376 39.1985 7.42152 39.7807 8.17221C40.3874 8.97514 40.8303 9.88375 41.0856 10.8489C41.3776 11.9395 41.5208 13.0627 41.5116 14.1896C41.5223 15.3376 41.3575 16.4807 41.0226 17.5814C40.7267 18.5592 40.2409 19.4728 39.5917 20.2727C38.9661 21.0264 38.1733 21.6327 37.2727 22.046C36.2929 22.4832 35.2247 22.7011 34.1469 22.6838C33.4251 22.7039 32.7049 22.6053 32.0169 22.3919C31.5228 22.2289 31.0532 22.0026 30.6205 21.7191C30.3859 21.5641 30.1696 21.3845 29.9755 21.1834V25.0948C29.9755 25.7749 29.785 26.277 29.4085 26.5864C29.032 26.8958 28.4531 27.0374 27.6326 27.0374ZM33.3414 9.6492C32.8303 9.63717 32.3246 9.75327 31.8729 9.98634C31.4479 10.2208 31.0836 10.5468 30.808 10.9394C30.4983 11.3835 30.2723 11.8777 30.1405 12.3989C29.9853 13.0045 29.9092 13.6268 29.914 14.2509C29.914 15.6725 30.214 16.8123 30.814 17.6398C31.414 18.4673 32.2284 18.8541 33.3474 18.8541C34.4663 18.8541 35.2808 18.4396 35.8463 17.5858C36.4118 16.732 36.7133 15.5951 36.7133 14.2509C36.7151 13.6284 36.6365 13.0081 36.4793 12.4047C36.3475 11.8858 36.1264 11.3923 35.8253 10.9452C35.5575 10.5521 35.1977 10.2265 34.7753 9.9951C34.3358 9.76181 33.842 9.64268 33.3414 9.6492Z" fill="#272560"/>
</svg>
